<?xml version="1.0" encoding="UTF-8"?>
<svg width="56px" height="71px" viewBox="0 0 56 71" version="1.1" xmlns="http://www.w3.org/2000/svg" xmlns:xlink="http://www.w3.org/1999/xlink">
    <!-- Generator: sketchtool 58 (101010) - https://sketch.com -->
    <title>178BC49E-E812-4ADB-8B7D-AD981A1CFE3F@3x</title>
    <desc>Created with sketchtool.</desc>
    <g id="Help-and-support---Desktop" stroke="none" stroke-width="1" fill="none" fill-rule="evenodd">
        <g id="-GSR--Help-and-support----landing" transform="translate(-383.000000, -1167.000000)">
            <g id="Mid-Row-Cards" transform="translate(241.000000, 1120.000000)">
                <g id="Gas-Emergency-Card">
                    <g id="Boiler-icon-Copy" transform="translate(144.000000, 48.000000)">
                        <polygon id="Fill-1" fill="#F9E826" points="1.833 61.7265 1 63.2555 1 63.3495 48.595 63.3495 50.439 63.3495 53.776 8.4725"></polygon>
                        <g id="Group-16" transform="translate(0.000000, 0.051600)">
                            <path d="M47.1641,63.2972 L4.0541,63.2972 C1.8151,63.2972 0.0001,61.4832 0.0001,59.2432 L0.0001,5.0022 C0.0001,2.7632 1.8151,0.9482 4.0541,0.9482 L47.1641,0.9482 C49.4031,0.9482 51.2181,2.7632 51.2181,5.0022 L51.2181,59.2432 C51.2181,61.4832 49.4031,63.2972 47.1641,63.2972 Z" id="Stroke-2" stroke="#1D1D1B" stroke-width="4"></path>
                            <path d="M20.2705,65.2249 C20.2705,67.3099 18.5805,68.9999 16.4955,68.9999 C14.4105,68.9999 12.7205,67.3099 12.7205,65.2249" id="Fill-4" fill="#1D1D1B"></path>
                            <path d="M38.8169,65.2249 C38.8169,67.3099 37.1269,68.9999 35.0419,68.9999 C32.9569,68.9999 31.2669,67.3099 31.2669,65.2249" id="Fill-6" fill="#1D1D1B"></path>
                            <path d="M30.5186,52.5696 C29.7726,55.2816 26.9706,56.8746 24.2586,56.1296 C21.5466,55.3826 19.9536,52.5806 20.6996,49.8686 C21.4446,47.1576 24.2476,45.5636 26.9596,46.3096 C29.6706,47.0546 31.2646,49.8576 30.5186,52.5696 Z" id="Stroke-8" stroke="#9AA19D" stroke-width="3"></path>
                            <path d="M0,14.0305 L51.218,14.0305" id="Stroke-10" stroke="#1D1D1B" stroke-width="4"></path>
                            <path d="M0,40.3069 L51.218,40.3069" id="Stroke-12" stroke="#1D1D1B" stroke-width="4"></path>
                            <path d="M16.4956,34.4866 L35.0416,34.4866" id="Stroke-14" stroke="#9AA19D" stroke-width="3" stroke-linecap="round"></path>
                        </g>
                    </g>
                </g>
            </g>
        </g>
    </g>
</svg>