<?xml version="1.0" encoding="UTF-8"?>
<svg width="106px" height="120px" viewBox="0 0 106 120" version="1.1" xmlns="http://www.w3.org/2000/svg" xmlns:xlink="http://www.w3.org/1999/xlink">
    <!-- Generator: sketchtool 56.3 (101010) - https://sketch.com -->
    <title>AD7CF91C-DFBD-48AF-AD2D-0E3DA60A8921</title>
    <desc>Created with sketchtool.</desc>
    <g id="Homepage-Desktop-" stroke="none" stroke-width="1" fill="none" fill-rule="evenodd">
        <g id="GSR--Homepage----nav-load-" transform="translate(-240.000000, -16.000000)">
            <g id="MainNav/landing">
                <g id="Group-22">
                    <g id="logo/GS-logo-nokeyline" transform="translate(240.000000, 15.000000)">
                        <g>
                            <path d="M50.2542155,115.310426 L50.3052998,115.310426 C50.3306968,115.002008 50.2237616,114.697403 50.0115649,114.473723 C49.7560435,114.288113 49.4447533,114.197169 49.1303601,114.216277 L47.2530107,114.216277 L47.2530107,116.430319 L49.0792757,116.430319 C49.3961454,116.453835 49.7103336,116.357454 49.9604805,116.16 C50.1719075,115.930642 50.2784279,115.622551 50.2542155,115.310426 Z M50.77783,117.022447 L50.790601,117.022447 C50.9817027,117.075359 51.1599439,117.167377 51.3142155,117.292766 C51.453227,117.417622 51.5698709,117.565671 51.6590348,117.730426 C51.7477729,117.900672 51.8122626,118.082675 51.850601,118.271064 C51.8894881,118.466451 51.9150898,118.664287 51.9272276,118.863192 C51.9272276,118.979043 51.9272276,119.133511 51.9272276,119.300851 C51.9150491,119.472263 51.9150491,119.644333 51.9272276,119.815745 C51.9361424,119.986188 51.9661748,120.154837 52.0166251,120.317766 C52.0471548,120.462161 52.1081313,120.59825 52.1954203,120.716809 L50.484095,120.716809 C50.37779,120.432277 50.3174258,120.132409 50.3052998,119.828617 C50.2797577,119.481064 50.2031312,119.159255 50.2031312,118.837447 C50.1822561,118.504 50.0519671,118.187016 49.8327697,117.936383 C49.5745672,117.724857 49.2446553,117.623251 48.9132516,117.653192 L47.2530107,117.653192 L47.2530107,120.729681 L45.490601,120.729681 L45.490601,112.890425 L49.7433721,112.890425 C50.061499,112.890301 50.3771347,112.946955 50.6756613,113.057766 C50.9476413,113.165525 51.1952379,113.32752 51.4036131,113.534043 C51.7966991,113.940376 52.0166816,114.485455 52.0166251,115.052979 C52.0259185,115.471232 51.9245326,115.884434 51.7228902,116.250106 C51.5024097,116.606819 51.1696668,116.878749 50.77783,117.022447 Z M59.4366249,112.877553 L59.4366249,114.332128 L55.3371069,114.332128 L55.3371069,116.005532 L59.1045767,116.005532 L59.1045767,117.344255 L55.3371069,117.344255 L55.3371069,119.262234 L59.5260224,119.262234 L59.5260224,120.716809 L53.6257816,120.716809 L53.6257816,112.877553 L59.4366249,112.877553 Z M65.2602396,120.652447 C64.9087356,120.803016 64.5310784,120.881772 64.1491552,120.884149 C63.6102971,120.888252 63.0761129,120.783195 62.5783118,120.575213 C62.0906517,120.394126 61.6528475,120.098471 61.3012034,119.712766 C60.9632582,119.341695 60.7065352,118.903121 60.5477094,118.425532 C60.3658254,117.913526 60.2750349,117.37318 60.2795166,116.829362 C60.2750164,116.272945 60.3657432,115.719913 60.5477094,115.194575 C60.7108526,114.718984 60.9670817,114.281254 61.3012034,113.90734 C61.6332307,113.527589 62.0427312,113.224615 62.5016853,113.019149 C63.0113729,112.806023 63.5591119,112.700865 64.110842,112.710213 C64.5012835,112.704985 64.8898224,112.765904 65.2602396,112.890426 C65.6293279,113.003465 65.975351,113.182208 66.2819263,113.418192 C66.5810805,113.655496 66.8324957,113.948227 67.0226492,114.280638 C67.2233058,114.645583 67.3451659,115.049155 67.3802396,115.464894 L65.783854,115.464894 C65.713482,115.077292 65.504447,114.729191 65.1963841,114.486596 C64.8941781,114.260302 64.5255158,114.142482 64.1491552,114.151915 C63.806943,114.141562 63.4679771,114.221429 63.1657817,114.383617 C62.9001068,114.524673 62.6755893,114.733222 62.5144564,114.988617 C62.3409668,115.24686 62.2154748,115.534727 62.1440949,115.838192 C62.0673275,116.167255 62.0287556,116.504196 62.0291552,116.842234 C62.0280231,117.167577 62.0666266,117.491824 62.1440949,117.80766 C62.2169226,118.106637 62.3423624,118.390024 62.5144564,118.644362 C62.6798249,118.892831 62.9035706,119.096241 63.1657817,119.236489 C63.4679771,119.398677 63.806943,119.478544 64.1491552,119.468192 C64.615038,119.494595 65.0728988,119.337688 65.4262637,119.030532 C65.7659946,118.688091 65.9625352,118.227397 65.9754203,117.743298 L64.2768661,117.743298 L64.2768661,116.456064 L67.5462637,116.456064 L67.5462637,120.691064 L66.4096372,120.691064 L66.2436131,119.802872 C65.9773145,120.15982 65.6258843,120.443193 65.2219263,120.626702 L65.2602396,120.652447 Z M69.2831301,112.851809 L70.9944554,112.851809 L70.9944554,120.691064 L69.2831301,120.691064 L69.2831301,112.851809 Z M73.9701196,118.79883 C74.057626,118.975671 74.1843531,119.12983 74.340481,119.249362 C74.5085477,119.361503 74.6942169,119.444193 74.8896376,119.493936 C75.103051,119.544989 75.3216213,119.570907 75.5409629,119.57117 L76.0390352,119.57117 C76.2077637,119.545328 76.3714837,119.493217 76.5243364,119.416702 C76.6695604,119.343463 76.7995942,119.24298 76.9074689,119.120638 C77.01235,118.979948 77.066418,118.807376 77.0607219,118.63149 C77.0714038,118.437863 76.9966049,118.249383 76.8563846,118.116596 C76.706293,117.970242 76.5281088,117.856352 76.3327701,117.781915 C76.0920444,117.685874 75.8444234,117.608416 75.5920472,117.550213 L74.7491557,117.331383 C74.4635361,117.25675 74.1821564,117.166511 73.9062641,117.061064 C73.6398125,116.962963 73.3899675,116.824025 73.1655413,116.649149 C72.9445545,116.479445 72.7617457,116.264477 72.6291557,116.018404 C72.4886193,115.734933 72.4184968,115.421297 72.4248184,115.104468 C72.418182,114.740399 72.5062431,114.380924 72.6802401,114.061809 C72.8499012,113.766727 73.0807866,113.512057 73.3571075,113.315213 C73.638945,113.11351 73.9548581,112.965206 74.2893967,112.877553 C74.6313528,112.787052 74.9830949,112.739493 75.3366256,112.735957 C75.7318941,112.732903 76.1261788,112.7761 76.5115653,112.864681 C76.8667316,112.956336 77.2036662,113.108724 77.5077099,113.315213 C77.7920486,113.522685 78.0275153,113.790784 78.1973484,114.100426 C78.3740931,114.460127 78.4617341,114.857639 78.4527701,115.258936 L76.7925292,115.258936 C76.7855279,115.058195 76.7377136,114.86104 76.6520472,114.679681 C76.5761206,114.531213 76.4612788,114.406557 76.319999,114.319255 C76.1753619,114.226636 76.0152626,114.161217 75.8474689,114.12617 C75.6521886,114.105384 75.4552794,114.105384 75.2599991,114.12617 C75.124092,114.112905 74.9872314,114.112905 74.8513244,114.12617 C74.7161504,114.156386 74.5867508,114.208556 74.4681918,114.280638 C74.3606409,114.350373 74.2691853,114.442554 74.1999991,114.550958 C74.1201908,114.677688 74.0801352,114.825722 74.0850593,114.975745 C74.0780455,115.106307 74.1091239,115.236082 74.1744569,115.349043 C74.2605423,115.46841 74.3809013,115.558272 74.5192762,115.606489 C74.7437956,115.713756 74.9793519,115.795775 75.2216858,115.851064 L76.4093966,116.16 L77.0096376,116.314468 C77.2812915,116.401743 77.5392847,116.527428 77.7759026,116.687766 C78.0397,116.863572 78.265576,117.091239 78.439999,117.357128 C78.6301517,117.684284 78.7232287,118.059544 78.7081918,118.438404 C78.7131907,118.784067 78.6434634,119.126683 78.5038544,119.442447 C78.3605458,119.750869 78.1511863,120.023436 77.8908424,120.240532 C77.5885087,120.472749 77.2465739,120.647254 76.8819268,120.755426 C76.4261188,120.891413 75.9523973,120.956523 75.4771075,120.948511 C75.0460229,120.948528 74.6167509,120.89228 74.1999991,120.78117 C73.8125685,120.688201 73.4477098,120.517459 73.127228,120.279149 C72.4537573,119.797767 72.0765817,118.998443 72.1310834,118.168085 L73.7913244,118.168085 C73.7804222,118.399657 73.8287994,118.630162 73.9318063,118.837447 L73.9701196,118.79883 Z M79.1040946,114.332128 L79.1040946,112.877553 L85.4640947,112.877553 L85.4640947,114.332128 L83.1397573,114.332128 L83.1397573,120.716809 L81.428432,120.716809 L81.428432,114.332128 L79.1040946,114.332128 Z M92.2710824,112.877553 L92.2710824,114.332128 L88.1587934,114.332128 L88.1587934,116.005532 L91.9262632,116.005532 L91.9262632,117.344255 L88.1587934,117.344255 L88.1587934,119.262234 L92.3477089,119.262234 L92.3477089,120.716809 L86.4474681,120.716809 L86.4474681,112.877553 L92.2710824,112.877553 Z M98.6055396,115.310426 C98.6361649,115.001348 98.5284776,114.694602 98.3118047,114.473723 C98.0598483,114.280853 97.7458328,114.189112 97.4305998,114.216277 L95.5660214,114.216277 L95.5660214,116.430319 L97.4305998,116.430319 C97.7474695,116.453835 98.0616577,116.357454 98.3118047,116.16 C98.5290073,115.93419 98.6364643,115.62339 98.6055396,115.310426 Z M99.0908404,117.022447 L99.1419248,117.022447 C99.5190751,117.1151 99.8339422,117.375622 99.9975874,117.730426 C100.091864,117.89817 100.156673,118.081074 100.189154,118.271064 C100.278551,118.464149 100.278551,118.747341 100.278551,118.863192 C100.278551,118.979043 100.278551,119.133511 100.278551,119.300851 L100.278551,119.815745 C100.299914,119.984501 100.329751,120.152056 100.367949,120.317766 C100.404501,120.460096 100.464974,120.595062 100.546744,120.716809 L98.8354187,120.716809 C98.7338917,120.431439 98.6778559,120.13166 98.6693947,119.828617 C98.6438525,119.481064 98.567226,119.159255 98.567226,118.837447 C98.5409176,118.505294 98.4113125,118.189974 98.1968646,117.936383 C97.938662,117.724857 97.6087501,117.623251 97.2773465,117.653192 L95.5660213,117.653192 L95.5660213,120.729681 L93.8546961,120.729681 L93.8546961,112.890426 L98.0436115,112.890426 C98.3658888,112.890426 98.6857015,112.947024 98.9886717,113.057766 C99.2567538,113.165785 99.5001213,113.327856 99.7038524,113.534043 C99.9050084,113.724616 100.06199,113.957559 100.163611,114.216277 C100.266963,114.482833 100.318975,114.766798 100.316864,115.052979 C100.330063,115.470061 100.233102,115.883191 100.035901,116.250106 C99.8154201,116.606819 99.4826772,116.87875 99.0908404,117.022447 Z" id="Combined-Shape" fill="#FFF200" fill-rule="nonzero"></path>
                            <path d="M105.719033,5.77968073 L105.719033,5.77968073 C105.725407,5.65533105 105.725407,5.53073254 105.719033,5.40638287 C105.723814,3.76758848 104.76308,2.28230725 103.272533,1.62764577 C101.781987,0.972984284 100.047962,1.27431001 98.8609606,2.39425527 C98.8609606,2.39425527 1.27710839,100.88053 0.868433707,101.331062 C0.290765834,102.061333 -0.0163242778,102.9717 -0.000618825522,103.90553 C-0.000618825522,104.997996 0.430566736,106.045718 1.19698044,106.818208 C1.96339415,107.590698 3.0028742,108.024679 4.08674686,108.024679 L101.146985,108.024679 C101.146985,108.024679 105.667948,108.024679 105.667948,103.46787 L105.719033,5.77968073 Z" id="Path" fill="#FFF200"></path>
                            <path d="M65.5412049,98.1258505 L65.5412049,86.6565952 C65.5970025,85.5164587 65.2881054,84.3883927 64.6600001,83.4385101 C64.0612139,82.6272913 63.2769959,81.9737467 62.373976,81.5334037 C61.3973616,81.0681813 60.3545547,80.7598081 59.2833735,80.6194675 C58.1744414,80.4667675 57.0565812,80.389359 55.9373494,80.3877436 C54.7236882,80.3858791 53.512896,80.5066246 52.3231325,80.7481909 C51.1766669,80.9867863 50.0794115,81.4222016 49.079277,82.035425 C46.9998256,83.2177297 45.6974332,85.4219211 45.6566264,87.8279782 L51.6590361,87.8279782 C51.6683378,86.8374001 52.101243,85.8990398 52.8467469,85.2535101 C53.6746258,84.7057529 54.6547757,84.4396007 55.6436144,84.494042 C56.1434463,84.4936134 56.6427093,84.5280217 57.1378313,84.5970207 C57.586017,84.6574293 58.0191112,84.8014835 58.4149398,85.0218079 C58.7668625,85.2456317 59.0568355,85.5556173 59.2578313,85.9228718 C59.488829,86.4079945 59.5984473,86.9427532 59.5771085,87.480425 C59.5918087,87.9931684 59.3759076,88.4851628 58.9896386,88.8191484 C58.5106106,89.1781133 57.9625484,89.4323961 57.3804819,89.5657441 C56.6120276,89.7500524 55.8307127,89.874849 55.0433735,89.939042 C54.1749397,90.0291484 53.2809638,90.1449994 52.3869879,90.2865952 C51.4787565,90.4289663 50.5791227,90.6223525 49.6922891,90.8658505 C48.8486296,91.0858572 48.0492287,91.4517062 47.3296385,91.9471271 C46.6109136,92.4738044 46.0283575,93.1669358 45.6310842,93.9680846 C45.1627748,94.9273632 44.9389268,95.9891172 44.9797589,97.0574463 C44.955028,98.0705825 45.1512094,99.0768436 45.5544577,100.005212 C45.9113635,100.805873 46.4545948,101.507958 47.1380722,102.051914 C47.8396947,102.603931 48.6426233,103.010765 49.5007228,103.249042 C50.4551204,103.502216 51.4384177,103.627726 52.4253012,103.622506 C53.7737319,103.609344 55.1125872,103.392388 56.3971084,102.978723 C57.6866067,102.585236 58.8556226,101.867634 59.7942169,100.893404 C59.821348,101.256152 59.8682461,101.617122 59.9346988,101.97468 C60.007182,102.327681 60.1010117,102.675883 60.2156627,103.01734 L66.30747,103.01734 C65.9677643,102.384848 65.7632921,101.687639 65.707229,100.970638 C65.5980009,100.022043 65.5425695,99.0679391 65.5412049,98.1129782 L65.5412049,98.1258505 Z M59.5387955,94.4958509 C59.5293648,94.9526774 59.4909733,95.4084292 59.4238558,95.860319 C59.3476218,96.4540103 59.1567164,97.0268939 58.8619281,97.5465956 C58.5245566,98.1367284 58.0459971,98.6323579 57.4698799,98.9882977 C56.6215896,99.4238677 55.6749466,99.6280111 54.7240967,99.5804254 C54.2527935,99.5834569 53.782312,99.5403468 53.3192774,99.451702 C52.9026585,99.3786076 52.5038102,99.2256689 52.1443376,99.0011701 C51.7991206,98.7923245 51.5200452,98.488712 51.3397593,98.1258509 C51.1222491,97.7053947 51.0166426,97.2352679 51.0332533,96.7613828 C51.0157736,96.2750618 51.1212457,95.7922449 51.3397593,95.3582977 C51.5202085,94.9932389 51.7879267,94.679162 52.1187955,94.4443615 C52.4629529,94.1887097 52.8471357,93.9929199 53.255422,93.8651062 C53.6954893,93.7236477 54.1432046,93.6076082 54.5963859,93.517553 C55.068916,93.440319 55.5542172,93.3630849 56.0267473,93.3115956 C56.4992774,93.2601062 56.9718076,93.1828722 57.4060244,93.0927658 C57.8392634,93.0185614 58.2662182,92.9109764 58.6831329,92.7709573 C59.0373677,92.6689981 59.3645861,92.4887005 59.6409642,92.2431913 L59.5387955,94.4958509 Z M99.1291551,84.3781912 C98.2498898,83.1626949 97.105037,82.1673204 95.7831311,81.4690424 C94.2706324,80.7207334 92.6018158,80.3498882 90.9173481,80.3877658 C89.3559635,80.3638872 87.8070155,80.6708704 86.3708422,81.2888296 C85.0366631,81.8489722 83.8321368,82.6817322 82.8332519,83.7345742 C81.8320018,84.7981497 81.0544179,86.0547751 80.5472279,87.4289357 C80.0002835,88.9021292 79.7275309,90.4643452 79.7426496,92.0372334 C79.723647,93.6333578 79.9874632,95.2200866 80.5216857,96.7227651 C81.0098365,98.0877782 81.7655652,99.3398015 82.7438543,100.404254 C83.7290955,101.44254 84.9278134,102.25095 86.2559024,102.772765 C87.7436819,103.343367 89.3257173,103.622965 90.9173481,103.596595 C93.1649444,103.672039 95.385124,103.081264 97.3028901,101.897446 C99.2013392,100.517004 100.557587,98.5075127 101.134215,96.2207439 L95.8597576,96.2207439 C95.5615646,97.0361618 94.9931412,97.7227687 94.250601,98.1644672 C92.0544279,99.5223028 89.2516286,99.3579379 87.2265048,97.7525523 C86.2148907,96.5728158 85.6853968,95.0499532 85.7450591,93.4918078 L101.530119,93.4918078 C101.650647,91.844824 101.508359,90.189015 101.108673,88.5874463 C100.740105,87.0804442 100.085216,85.6597383 99.1802395,84.4039359 L99.1291551,84.3781912 Z M85.7450619,89.6429782 C85.7936837,89.1503757 85.887745,88.6634122 86.0260257,88.1884038 C86.1950134,87.6282279 86.4728532,87.1075236 86.8433751,86.6565953 C87.2570106,86.147053 87.775561,85.7341941 88.3631341,85.4465953 C89.1045249,85.0937764 89.9192771,84.9260019 90.7385558,84.9574464 C91.9528473,84.8596297 93.1497335,85.2961781 94.0207244,86.154574 C94.8373228,87.1570857 95.3593305,88.3698977 95.5277123,89.6558506 L85.7450619,89.6429782 Z M65.5922878,74.2862761 C65.3556698,74.1259385 65.0976766,74.0002531 64.8260227,73.9129783 L64.2130107,73.7585102 L63.0380709,73.449574 C62.7911349,73.3960574 62.551153,73.3139894 62.3228902,73.2049996 C62.1883938,73.1496083 62.0698347,73.0610904 61.9780709,72.9475528 C61.9127379,72.8345917 61.8816595,72.7048175 61.8886733,72.5742549 C61.8820952,72.424042 61.9222837,72.2755157 62.0036131,72.1494677 C62.0739597,72.037586 62.1704252,71.9447753 62.284577,71.8791485 C62.3946197,71.7996679 62.5213515,71.7468114 62.6549384,71.7246805 C62.7947929,71.705755 62.9365297,71.705755 63.0763842,71.7246805 C63.2674181,71.704323 63.4600491,71.704323 63.651083,71.7246805 C63.8233511,71.7507621 63.9885042,71.8120904 64.1363842,71.9048932 C64.2719212,71.9990727 64.3852757,72.1221147 64.4684324,72.2653187 C64.5554577,72.450752 64.6032966,72.6523918 64.6089143,72.8574464 L66.2691553,72.8574464 C66.2796853,72.4518695 66.1920165,72.049814 66.0137336,71.6860634 C65.8483409,71.3732873 65.6120594,71.1042605 65.324095,70.9008507 C65.0220886,70.6935215 64.684209,70.545073 64.3279505,70.4631911 C63.944096,70.3646042 63.5491048,70.3170026 63.1530107,70.3215954 C62.7952207,70.3243322 62.4391563,70.3718956 62.0930107,70.4631911 C61.7594011,70.5534329 61.4439272,70.7015309 61.1607215,70.9008507 C60.8883434,71.1021604 60.6582824,71.3559213 60.4838541,71.6474464 C60.3082442,71.9705841 60.2201502,72.3346333 60.2284324,72.7029783 C60.2172021,73.020288 60.2875944,73.3351305 60.4327697,73.6169145 C60.5567414,73.8650308 60.7359457,74.0808998 60.9563842,74.2476591 C61.1870749,74.4200049 61.4407404,74.558677 61.7098782,74.659574 C61.9823088,74.774762 62.2643904,74.8652269 62.5527697,74.9298931 C62.8465047,75.0199995 63.1274685,75.0843612 63.3956613,75.1487229 L64.1363842,75.380425 C64.3346181,75.456692 64.5166487,75.570271 64.6727697,75.7151059 C64.8062771,75.8524063 64.8798397,76.037771 64.8771071,76.2299995 C64.8849423,76.4061753 64.8306514,76.5794594 64.7238541,76.7191484 C64.6199809,76.8490135 64.489224,76.9544484 64.3407215,77.0280846 C64.1913805,77.12334 64.027383,77.192939 63.8554203,77.234042 L63.3701191,77.234042 C63.1465197,77.2345451 62.9236328,77.2086235 62.7060227,77.156808 C62.508858,77.1056561 62.3227091,77.0183887 62.1568661,76.8993612 C61.9981063,76.7880257 61.8705393,76.6372786 61.7865047,76.4617016 C61.685087,76.2538602 61.6367974,76.0237721 61.6460227,75.7923399 L60.024095,75.7923399 C59.9974484,76.2364555 60.0854498,76.679951 60.2795167,77.0795739 C60.4577544,77.4239295 60.7109843,77.7231737 61.0202396,77.954893 C61.3466022,78.1830363 61.7094904,78.352856 62.0930107,78.4569143 C62.5103785,78.5633998 62.9396053,78.6153154 63.3701191,78.6113824 C63.8453616,78.6185993 64.3189647,78.553505 64.7749384,78.4182973 C65.1416388,78.3154014 65.4845245,78.1404119 65.7838541,77.9034037 C66.0514109,77.6902724 66.2657278,77.416946 66.4096372,77.1053186 C66.5438269,76.7878247 66.6133163,76.4463782 66.6139746,76.1012761 C66.6251598,75.7211481 66.5276275,75.3457996 66.3330107,75.0199995 C66.1588436,74.7503512 65.9330758,74.5184173 65.6689143,74.3377655 L65.5922878,74.2862761 Z M45.835421,77.4271276 C46.1914139,77.8107974 46.6276633,78.1097989 47.1125294,78.3024468 C47.5682419,78.4603803 48.0484002,78.5345011 48.5301199,78.5212766 C48.9163104,78.5202635 49.2984079,78.4414876 49.6539753,78.2895744 C50.0585018,78.1010228 50.4097462,77.813374 50.6756621,77.4528723 L50.8416862,78.3410638 L51.9399995,78.3410638 L51.9399995,74.0931913 L48.708915,74.0931913 L48.708915,75.3804254 L50.4330115,75.3804254 C50.4248412,75.8630073 50.2327795,76.3239227 49.8966259,76.6676595 C49.5425911,76.973633 49.0852164,77.1303733 48.6195174,77.1053191 C48.2773052,77.1156717 47.9383393,77.0358047 47.6361439,76.8736169 C47.3739328,76.7333682 47.1501871,76.5299582 46.9848186,76.2814892 C46.813014,76.022312 46.6876596,75.7347607 46.6144571,75.4319147 C46.5369888,75.1160786 46.4983853,74.7918321 46.4995174,74.4664892 C46.4991795,74.1327018 46.5377573,73.8000305 46.6144571,73.4753189 C46.6875706,73.1644216 46.8128249,72.8683932 46.9848186,72.5999997 C47.1534636,72.3510402 47.3762203,72.144127 47.6361439,71.9949997 C47.9415705,71.8430207 48.2789969,71.7679333 48.6195174,71.7761699 C49.0006356,71.7606862 49.3752762,71.878974 49.6795175,72.1108508 C49.9902508,72.356612 50.1995602,72.7097556 50.2669874,73.102021 L51.9144573,73.102021 C51.8768359,72.6809794 51.7505748,72.272863 51.5440959,71.9048933 C51.3574914,71.5699525 51.105519,71.2765732 50.8033729,71.0424465 C50.4988487,70.8001992 50.1524445,70.6168951 49.7816862,70.5018082 C49.4053992,70.3835764 49.0136621,70.3228313 48.6195174,70.3215954 C48.0663711,70.3105018 47.5174025,70.4202877 47.0103608,70.6434039 C46.5227621,70.8308067 46.0854104,71.1305638 45.7332523,71.5187231 C45.4065459,71.8980693 45.1512052,72.3342816 44.9797583,72.8059572 C44.8077216,73.3334404 44.7214671,73.8854987 44.7242673,74.4407445 C44.7219711,74.9875333 44.8082479,75.531039 44.9797583,76.0497871 C45.1485262,76.522736 45.4041447,76.9594228 45.7332523,77.3370212 L45.835421,77.4271276 Z M41.7231325,91.6253192 C41.0466655,91.1390679 40.3020007,90.7572756 39.5137349,90.4925532 C38.6752903,90.2078436 37.8227355,89.9672355 36.959518,89.7717021 C36.1166264,89.5657447 35.2865059,89.3855319 34.4691565,89.2181915 C33.7298223,89.0716807 33.000416,88.8782098 32.285301,88.6389362 C31.7189527,88.4692389 31.1930595,88.1844945 30.7399998,87.802234 C30.0697367,87.1770779 29.9606464,86.1489965 30.4845781,85.3951063 C30.7086814,85.1256304 30.9932398,84.9138289 31.3146986,84.777234 C31.6557451,84.6301808 32.0178892,84.5389269 32.3874697,84.5069148 C32.7518157,84.4616292 33.1186851,84.4401305 33.485783,84.4425531 C34.4538238,84.4186015 35.4132933,84.6305635 36.2826505,85.0604255 C37.1044433,85.5566771 37.593649,86.4639524 37.559759,87.4289362 L43.2939759,87.4289362 C43.2302025,86.2279239 42.8749961,85.0610353 42.2595181,84.0306382 C41.7020659,83.1569655 40.9554124,82.4219962 40.0756626,81.8809573 C39.1606803,81.3208285 38.1524665,80.9326634 37.0999999,80.735319 C35.9651781,80.5025165 34.8098941,80.3860721 33.6518071,80.3876374 C32.4863741,80.3833846 31.3231871,80.4911429 30.1780721,80.7095743 C29.1049452,80.8985093 28.0723067,81.2730324 27.1257829,81.8165956 C26.2359765,82.3400127 25.489757,83.0788756 24.9546985,83.9662765 C24.3538561,85.0536754 24.0663441,86.2886329 24.124578,87.5319149 C24.0980531,88.3872502 24.3057249,89.2334304 24.724819,89.9776596 C25.1126639,90.6465005 25.6452481,91.2185078 26.2828913,91.6510639 C26.9711818,92.1087937 27.7189947,92.4683373 28.50506,92.7194682 C29.3564657,92.9854965 30.2078713,93.2171987 31.0592769,93.4145746 C32.7567815,93.7545226 34.4293929,94.2103963 36.0655421,94.7790427 C37.266024,95.2424469 37.866265,95.924681 37.866265,96.8257448 C37.8706631,97.2840049 37.7370733,97.732835 37.4831325,98.1129789 C37.2285896,98.4578899 36.9070385,98.7469525 36.5380722,98.9625534 C36.1383382,99.1818333 35.7076423,99.3381132 35.2609637,99.4259576 C34.8417809,99.5222582 34.4137419,99.5740302 33.9838553,99.5804257 C33.406532,99.5806489 32.8315084,99.5071198 32.27253,99.3615959 C31.7480116,99.2329015 31.2506007,99.0105616 30.8038552,98.7051066 C30.3799078,98.40425 30.0267555,98.0131419 29.7693974,97.5594682 C29.4939685,97.041725 29.3574958,96.4604452 29.3734938,95.8731916 L23.6137346,95.8731916 C23.6261009,97.1662866 23.9692029,98.434302 24.6098792,99.554681 C25.1945936,100.513087 25.9897964,101.323403 26.9342166,101.923192 C27.9299401,102.545324 29.0288079,102.981379 30.1780721,103.210426 C31.4058239,103.458812 32.6549895,103.583785 33.9072288,103.583785 C35.1336287,103.586894 36.3572556,103.466149 37.559759,103.223298 C38.6950294,103.000995 39.7783315,102.564239 40.7525301,101.936064 C41.6831093,101.34563 42.4585587,100.537538 43.0130121,99.5804257 C43.6282596,98.4646372 43.9285997,97.2003302 43.8814458,95.924681 C43.9110799,95.0296336 43.7085923,94.1422725 43.2939759,93.3502129 C42.9039979,92.6576698 42.3677246,92.0600159 41.7231325,91.5995745 L41.7231325,91.6253192 Z M80.3045766,80.9541484 L76.1667453,80.9541484 L76.1667453,79.6669144 C76.0966364,78.9760211 76.2832015,78.2834677 76.6903598,77.723191 C77.171127,77.2893367 77.8106762,77.0791346 78.4527694,77.1439357 C79.1867474,77.1468227 79.9200312,77.1897934 80.6493959,77.2726591 L80.6493959,72.7544677 L79.0785525,72.651489 C78.542167,72.651489 78.0057814,72.651489 77.4693959,72.651489 C75.4625979,72.490035 73.4778374,73.1646211 71.9778297,74.5179783 C70.7464955,75.8118979 70.0876465,77.5533473 70.1515646,79.3451059 L70.1515646,81.0442548 L66.5501188,81.0442548 L66.5501188,85.0990419 L70.1515646,85.0990419 L70.1515646,102.978722 L76.1667453,102.978722 L76.1667453,84.9574462 L80.3045766,84.9574462 L80.3045766,80.9541484 Z M54.7624102,76.6032976 L57.6742174,76.6032976 L58.2616873,78.353936 L60.0496391,78.353936 L57.1378319,70.4889358 L55.4392776,70.4889358 L52.4891571,78.3796807 L54.2132535,78.3796807 L54.7624102,76.6032976 Z M56.2310852,72.4326592 L56.2310852,72.4326592 L57.2144587,75.3160635 L55.2732539,75.3160635 L56.2310852,72.4326592 Z M99.3334919,77.2340423 C100.574749,77.2197444 101.569503,76.1939661 101.555371,74.9428665 C101.541239,73.6917669 100.523573,72.689082 99.2823141,72.7032721 C98.0410553,72.7174622 97.0462138,73.7431542 97.0602389,74.994255 C97.0635637,75.5962138 97.3057834,76.1717904 97.7328622,76.592582 C98.1599411,77.0133736 98.7363468,77.244371 99.3334919,77.2340423 L99.3334919,77.2340423 Z M99.3334956,73.0376593 C100.306333,73.1510721 101.040359,73.9814227 101.040359,74.9685103 C101.040359,75.955598 100.306333,76.7859486 99.3334956,76.8993614 C98.3606582,76.7859486 97.6266319,75.955598 97.6266319,74.9685103 C97.6266319,73.9814227 98.3606582,73.1510721 99.3334956,73.0376593 L99.3334956,73.0376593 Z M98.8737354,75.1487231 L99.2951812,75.1487231 L100.010362,76.2943613 L100.45735,76.2943613 L99.7038559,75.1229784 C99.8924192,75.1268722 100.074043,75.0512915 100.204959,74.9144504 C100.335875,74.7776093 100.40421,74.5919185 100.393494,74.4021274 C100.393494,73.8872338 100.099759,73.6426593 99.4739764,73.6426593 L98.4650607,73.6426593 L98.4650607,76.3329784 L98.8737354,76.3329784 L98.8737354,75.1487231 Z M98.8737368,73.9773402 L99.4101223,73.9773402 C99.6910862,73.9773402 99.9848211,73.9773402 99.9848211,74.3763828 C99.9848211,74.7754253 99.6527729,74.8140423 99.2951826,74.8140423 L98.8737368,74.8140423 L98.8737368,73.9773402 Z" id="Shape" fill="#03180D" fill-rule="nonzero"></path>
                        </g>
                    </g>
                </g>
            </g>
        </g>
    </g>
</svg>