<?xml version="1.0" encoding="UTF-8"?>
<svg width="66px" height="61px" viewBox="0 0 66 61" version="1.1" xmlns="http://www.w3.org/2000/svg" xmlns:xlink="http://www.w3.org/1999/xlink">
    <!-- Generator: sketchtool 58 (101010) - https://sketch.com -->
    <title>90ED4AA7-B1B6-40DA-8E07-4C388F79C81F</title>
    <desc>Created with sketchtool.</desc>
    <defs>
        <polygon id="path-1" points="0.000494386102 0.442 65.581 0.442 65.581 60.9997 0.000494386102 60.9997"></polygon>
        <polygon id="path-3" points="0 61.5579 65.581 61.5579 65.581 0.9999 0 0.9999"></polygon>
    </defs>
    <g id="Homepage-Desktop-" stroke="none" stroke-width="1" fill="none" fill-rule="evenodd">
        <g id="GSR--Homepage----nav-load-" transform="translate(-917.000000, -1283.000000)">
            <g id="Group-13" transform="translate(776.000000, 1282.000000)">
                <g id="Group-8" transform="translate(141.000000, 0.000000)">
                    <path d="M49.5668,16.0696 C50.6828,17.2156 53.7658,19.6186 54.6598,20.9536 C57.4498,25.1216 55.0558,30.9086 55.0558,36.3016 C55.0558,41.0476 57.1418,48.5076 54.9388,52.3486 C53.6818,54.5386 55.7228,57.0546 53.8918,58.7676 C51.6798,60.8356 48.9038,58.2366 39.9378,59.9486 C37.7718,60.3616 40.8128,41.8316 38.4728,42.7906 C37.7428,43.0906 30.8288,38.1966 27.7288,43.1396 C24.5008,48.2886 25.5338,60.1466 24.7658,60.0818661 C19.6358,59.6476 12.8268,59.9566 9.1708,56.3956 L49.5668,16.0696 Z" id="Fill-1" fill="#F9E826"></path>
                    <g id="Group-5" transform="translate(0.000000, 0.557900)">
                        <mask id="mask-2" fill="white">
                            <use xlink:href="#path-1"></use>
                        </mask>
                        <g id="Clip-4"></g>
                        <path d="M53.2709,56.8687 L53.2839,56.8687 L40.9859,56.9077 L40.9859,41.5437 C40.9819,40.4157 40.0699,39.5017 38.9419,39.4947 L26.6439,39.4597 C25.5119,39.4567 24.5909,40.3707 24.5879,41.5027 L24.5879,41.5097 L24.5879,56.8687 L12.2919,56.8687 L12.2919,21.2587 L32.7879,4.5327 L53.2849,21.2587 L53.2709,56.8687 Z M65.1989,25.6977 L57.3839,19.3137 L57.3839,9.3987 C57.3839,8.9737 57.0399,8.6307 56.6159,8.6307 L54.0529,8.6307 C53.6279,8.6307 53.2849,8.9737 53.2849,9.3987 L53.2849,15.9747 L35.3749,1.3547 C33.8649,0.1377 31.7109,0.1377 30.2019,1.3547 L0.3769,25.6977 C-0.0601,26.0547 -0.1261,26.6987 0.2289,27.1377 L1.5229,28.7267 C1.8779,29.1627 2.5179,29.2307 2.9579,28.8797 L8.1919,24.6037 L8.1919,58.9017 C8.1919,60.0337 9.1099,60.9517 10.2419,60.9517 L26.6389,60.9517 C27.7709,60.9517 28.6889,60.0337 28.6889,58.9017 L28.6889,43.5607 L36.8869,43.5987 L36.8869,58.9507 C36.8869,60.0827 37.8049,60.9997 38.9369,60.9997 L55.3339,60.9577 C56.4659,60.9577 57.3839,60.0397 57.3839,58.9087 L57.3839,24.6037 L62.6189,28.8797 C63.0569,29.2367 63.7029,29.1697 64.0589,28.7307 L65.3529,27.1407 C65.7089,26.7017 65.6409,26.0567 65.2019,25.7007 C65.2009,25.6997 65.1999,25.6987 65.1989,25.6977 L65.1989,25.6977 Z" id="Fill-3" fill="#020303" mask="url(#mask-2)"></path>
                    </g>
                    <mask id="mask-4" fill="white">
                        <use xlink:href="#path-3"></use>
                    </mask>
                    <g id="Clip-7"></g>
                    <polygon id="Stroke-6" stroke="#9AA19D" stroke-width="3" stroke-linejoin="round" mask="url(#mask-4)" points="26.076 33.1909 39.496 33.1909 39.496 19.7709 26.076 19.7709"></polygon>
                </g>
            </g>
        </g>
    </g>
</svg>