<?xml version="1.0" encoding="UTF-8"?>
<svg width="66px" height="66px" viewBox="0 0 66 66" version="1.1" xmlns="http://www.w3.org/2000/svg" xmlns:xlink="http://www.w3.org/1999/xlink">
    <!-- Generator: sketchtool 58 (101010) - https://sketch.com -->
    <title>1641FC9C-ABBF-4E7C-8F31-280F82D1A9FC</title>
    <desc>Created with sketchtool.</desc>
    <defs>
        <polygon id="path-1" points="0 0.382208955 65.617791 0.382208955 65.617791 66 0 66"></polygon>
    </defs>
    <g id="Homepage-Desktop-" stroke="none" stroke-width="1" fill="none" fill-rule="evenodd">
        <g id="GSR--Homepage----nav-load-" transform="translate(-374.000000, -1282.000000)">
            <g id="Group-4" transform="translate(260.000000, 1282.000000)">
                <g id="Group-8" transform="translate(114.000000, 0.000000)">
                    <path d="M43.8446645,7.425 C48.3647243,12.0658172 51.15,18.405093 51.15,25.3952809 C51.15,39.6191352 39.6191352,51.15 25.3952809,51.15 C18.405093,51.15 12.0658172,48.3647243 7.425,43.8436828 L43.8446645,7.425 Z" id="Fill-1" fill="#F9E826"></path>
                    <g id="Group-5">
                        <mask id="mask-2" fill="white">
                            <use xlink:href="#path-1"></use>
                        </mask>
                        <g id="Clip-4"></g>
                        <path d="M26.6559224,49.592991 C14.1868478,49.592991 4.10165373,39.507797 4.10165373,27.0387224 C4.10165373,14.5686627 14.1868478,4.48346866 26.6559224,4.48346866 C39.124997,4.48346866 49.210191,14.5686627 49.210191,27.0387224 C49.210191,39.507797 39.124997,49.592991 26.6559224,49.592991 M65.1664299,62.1004836 L48.6349075,45.5689612 C48.3393851,45.2744239 47.955206,45.1207522 47.5454149,45.1207522 L46.2244299,45.1207522 C50.6208179,40.365797 53.3120418,34.0229015 53.3120418,27.0387224 C53.3120418,12.3128418 41.3808179,0.38161791 26.6559224,0.38161791 C11.9310269,0.38161791 -0.000197014925,12.3128418 -0.000197014925,27.0387224 C-0.000197014925,41.7626328 11.9310269,53.6938567 26.6559224,53.6938567 C33.6401015,53.6938567 39.9839821,51.0026328 44.7379522,46.6200358 L44.7379522,47.9272299 C44.7379522,48.3370209 44.9044299,48.7221851 45.1871463,49.0167224 L61.7186687,65.5482448 C62.3205493,66.1511104 63.2947881,66.1511104 63.8976537,65.5482448 L65.1664299,64.2794687 C65.7683104,63.6775881 65.7683104,62.7033493 65.1664299,62.1004836" id="Fill-3" fill="#020303" mask="url(#mask-2)"></path>
                    </g>
                    <path d="M37.95,26.8125 C37.95,33.4187906 32.5937906,38.775 25.9875,38.775 C19.3812094,38.775 14.025,33.4187906 14.025,26.8125 C14.025,20.2062094 19.3812094,14.85 25.9875,14.85 C32.5937906,14.85 37.95,20.2062094 37.95,26.8125 Z" id="Stroke-6" stroke="#9AA19D" stroke-width="3"></path>
                </g>
            </g>
        </g>
    </g>
</svg>