<?xml version="1.0" encoding="UTF-8"?>
<svg width="73px" height="73px" viewBox="0 0 73 73" version="1.1" xmlns="http://www.w3.org/2000/svg" xmlns:xlink="http://www.w3.org/1999/xlink">
    <!-- Generator: sketchtool 58 (101010) - https://sketch.com -->
    <title>FE8D8267-EF42-448D-9DD6-576A684316E1</title>
    <desc>Created with sketchtool.</desc>
    <defs>
        <polygon id="path-1" points="0.9199 0.049 60.871 0.049 60.871 60 0.9199 60"></polygon>
    </defs>
    <g id="Homepage-Desktop-" stroke="none" stroke-width="1" fill="none" fill-rule="evenodd">
        <g id="GSR--Homepage----nav-load-" transform="translate(-1465.000000, -1276.000000)">
            <g id="Group-15" transform="translate(1327.000000, 1277.000000)">
                <g id="Group-8" transform="translate(139.000000, 0.000000)">
                    <path d="M61.2132,24.2932 C65.8182,29.0202 68.6552,35.4772 68.6552,42.5972 C68.6552,57.0852 56.9102,68.8302 42.4222,68.8302 C35.3022,68.8302 28.8452,65.9932 24.1182,61.3882 L61.2132,24.2932 Z" id="Fill-1" fill="#F9E826"></path>
                    <path d="M0.5004,41.8958 C0.5004,19.0338 19.0334,0.4998 41.8964,0.4998 C47.6114,0.4998 53.0564,1.6588 58.0094,3.7528" id="Stroke-3" stroke="#9AA19D" stroke-width="3" stroke-linecap="round" stroke-linejoin="round"></path>
                    <g id="Group-7" transform="translate(11.000000, 11.871200)">
                        <mask id="mask-2" fill="white">
                            <use xlink:href="#path-1"></use>
                        </mask>
                        <g id="Clip-6"></g>
                        <path d="M30.8959,0.049 C14.3419,0.049 0.9199,13.476 0.9199,30.025 C0.9199,46.583 14.3419,60 30.8959,60 C47.4499,60 60.8719,46.583 60.8719,30.025 C60.8719,13.476 47.4499,0.049 30.8959,0.049 M30.8959,3.917 C45.2339,3.917 57.0029,15.529 57.0029,30.025 C57.0029,44.443 45.3269,56.132 30.8959,56.132 C16.4829,56.132 4.7889,44.461 4.7889,30.025 C4.7889,15.617 16.4639,3.917 30.8959,3.917 M31.8229,37.277 L29.8889,37.277 C29.0879,37.277 28.4389,36.627 28.4389,35.826 L28.4389,35.78 C28.4389,27.278 37.7979,28.091 37.7979,22.798 C37.7979,20.379 35.6519,17.938 30.8559,17.938 C27.3329,17.938 25.5049,19.104 23.6999,21.406 C23.2269,22.007 22.3629,22.131 21.7359,21.693 L20.1479,20.587 C19.4679,20.113 19.3189,19.164 19.8289,18.511 C22.3939,15.22 25.4379,13.103 30.8559,13.103 C37.1799,13.103 42.6329,16.699 42.6329,22.798 C42.6329,30.946 33.2739,30.515 33.2739,35.78 L33.2739,35.826 C33.2739,36.627 32.6239,37.277 31.8229,37.277 M30.8959,40.177 C29.0269,40.177 27.5109,41.693 27.5109,43.562 C27.5109,45.431 29.0269,46.946 30.8959,46.946 C32.7649,46.946 34.2809,45.431 34.2809,43.562 C34.2809,41.693 32.7649,40.177 30.8959,40.177" id="Fill-5" fill="#020303" mask="url(#mask-2)"></path>
                    </g>
                </g>
            </g>
        </g>
    </g>
</svg>